PathFileType	4	(X/Y/Z)	/Users/niels/Desktop/University/Third Semester/Perception and Action/Exam/Gymnastics Motion Tracking/Code for Gym Tracking/Analyzed Data/Start Salto/stsalto_bad_id14_1_Sports2D/stsalto_bad_id14_1_Sports2D_px_person00.trc
DataRate	CameraRate	NumFrames	NumMarkers	Units	OrigDataRate	OrigDataStartFrame	OrigNumFrames
29.83695652173913	29.83695652173913	9	22	m	29.83695652173913	138	184
Frame#	Time	Hip			RHip			RKnee			RAnkle			RBigToe			RSmallToe			RHeel			LHip			LKnee			LAnkle			LBigToe			LSmallToe			LHeel			Neck			Head			Nose			RShoulder			RElbow			RWrist			LShoulder			LElbow			LWrist		
		X1	Y1	Z1	X2	Y2	Z2	X3	Y3	Z3	X4	Y4	Z4	X5	Y5	Z5	X6	Y6	Z6	X7	Y7	Z7	X8	Y8	Z8	X9	Y9	Z9	X10	Y10	Z10	X11	Y11	Z11	X12	Y12	Z12	X13	Y13	Z13	X14	Y14	Z14	X15	Y15	Z15	X16	Y16	Z16	X17	Y17	Z17	X18	Y18	Z18	X19	Y19	Z19	X20	Y20	Z20	X21	Y21	Z21	X22	Y22	Z22
138	4.625136612021858	1.4024434577049358	-0.6253299156145825	0.0	1.4100805172567763	-0.6208338236305981	0.0	1.5530075676051363	-0.638219651233176	0.0	1.5151837103190973	-0.7530522309886948	0.0	1.558588920300323	-0.786350912035195	0.0	1.5505103886841838	-0.7874948854167266	0.0	1.4976002781414472	-0.7690711049107296	0.0	1.3879618013153672	-0.6266088622325459	0.0	1.5281187647438184	-0.634890550196131	0.0	1.4985897835377593	-0.748054380295916	0.0	1.5442202418762263	-0.7758577777950281	0.0	1.5350582000133972	-0.7797169886890151	0.0	1.4852408521813527	-0.7618784179533781	0.0	1.3747514851163491	-0.4573730827386438	0.0	1.376682799273196	-0.3809717640225458	0.0	1.4044224401314154	-0.41629832791527743	0.0	1.3929926958601677	-0.4753722766433315	0.0	1.420459207511745	-0.5588759139248931	0.0	1.4874968906771433	-0.6126543617665916	0.0	1.352278355176137	-0.48073608530738193	0.0	1.3819116465582828	-0.5652779399434847	0.0	1.4250576389010774	-0.6183355056625507	0.0
139	4.658652094717669	1.4067051565746533	-0.6280907938254401	0.0	1.4147635016328826	-0.6242474622820963	0.0	1.5591243527543763	-0.6326841588903652	0.0	1.521581645727415	-0.7467197689018759	0.0	1.5641060973016117	-0.7820520713218325	0.0	1.5563298590645807	-0.783182972220666	0.0	1.5029711298272255	-0.7628185554742161	0.0	1.3927099162734191	-0.6290529975910794	0.0	1.533617781345348	-0.6280540101214427	0.0	1.5030961979770427	-0.7416684322613014	0.0	1.549384105900183	-0.771300421070485	0.0	1.5411081065712882	-0.7746142956216577	0.0	1.4891032498683883	-0.755235782832038	0.0	1.3832187197907044	-0.4607088924839811	0.0	1.3877443492783577	-0.3842371478417107	0.0	1.4147213607125015	-0.42199209465030674	0.0	1.4023088405015447	-0.4781289775440726	0.0	1.4365312403975041	-0.5617010403838036	0.0	1.5045431610260616	-0.6152606180553495	0.0	1.3595446400992097	-0.4829350205714509	0.0	1.4046816512329567	-0.5662581635392934	0.0	1.4611496891519238	-0.6151883031449578	0.0
140	4.692167577413479	1.41147994000617	-0.6303596763782632	0.0	1.4200296683838487	-0.627219616809034	0.0	1.5649463187953467	-0.6283154314466627	0.0	1.5298261342201103	-0.7423930673267172	0.0	1.572112622824718	-0.7782548731297062	0.0	1.5647726161155415	-0.7796445834860665	0.0	1.5107042929562948	-0.7586749111190454	0.0	1.3981684772642955	-0.6312441180655027	0.0	1.5380602970217252	-0.6230560567615163	0.0	1.5092151449436555	-0.7374372779502711	0.0	1.556165942384247	-0.7674654939474795	0.0	1.5483577439687968	-0.7701518514872486	0.0	1.4952434405535693	-0.7509974777333859	0.0	1.3907362344358158	-0.464050289017317	0.0	1.397938492599107	-0.38770341627195365	0.0	1.4240245201108885	-0.4274726253994636	0.0	1.4105768148283973	-0.4809910894289048	0.0	1.451291326635278	-0.5641060174117292	0.0	1.5202551909264954	-0.6160752160075864	0.0	1.3654766105599152	-0.48537851252078107	0.0	1.4217696631890895	-0.5671550030249952	0.0	1.4902844669562225	-0.6120314736060954	0.0
141	4.72568306010929	1.4164596799859097	-0.6322693590907068	0.0	1.4256331995344034	-0.629823937318822	0.0	1.5704981302788656	-0.6250039029183864	0.0	1.5400249373953352	-0.740101343818686	0.0	1.5827303248983344	-0.7751860570594791	0.0	1.5758024312836822	-0.7770120741076406	0.0	1.5211889778814225	-0.7565994840249285	0.0	1.40398850267305	-0.6334866467356945	0.0	1.5413233979408067	-0.6202302767931498	0.0	1.517013984683824	-0.7354626199113313	0.0	1.564208855891256	-0.7642272132317919	0.0	1.5565410463488516	-0.7664295577688223	0.0	1.5038758162275363	-0.7492779353939183	0.0	1.3972707228298455	-0.4672863495929718	0.0	1.4070063497485272	-0.39133345459910623	0.0	1.4321972525186446	-0.4326993907802058	0.0	1.4178150791883017	-0.48403205426167467	0.0	1.4643897770764673	-0.5660860629682303	0.0	1.5340908046305615	-0.6152332289295364	0.0	1.3701162828508693	-0.4880444680906293	0.0	1.431775561026556	-0.5681276260008249	0.0	1.5110564872438697	-0.6094555675959672	0.0
142	4.759198542805101	1.4214175027175942	-0.6340227397222313	0.0	1.4313131124580547	-0.6321751519491565	0.0	1.5758350481994348	-0.622515674518528	0.0	1.5521021476066625	-0.7394621625208835	0.0	1.5957267964486488	-0.7728328598515712	0.0	1.5890915974411914	-0.7751867131204447	0.0	1.5344713615018108	-0.7560934277286316	0.0	1.4098524435405757	-0.6360326699127631	0.0	1.5436428310403636	-0.6196201329573288	0.0	1.5265208506575099	-0.7354643486760221	0.0	1.5733297689367227	-0.7612505798195627	0.0	1.5655080731877706	-0.7633566539457557	0.0	1.5149692620408124	-0.7496979471596651	0.0	1.4030006711866376	-0.47034865182413	0.0	1.414947207185556	-0.39507386289028085	0.0	1.4393558103580308	-0.4376629178426133	0.0	1.4242917568072886	-0.4872693075808341	0.0	1.4757958363543902	-0.567585851226291	0.0	1.5459061803439138	-0.6130310984780045	0.0	1.3738032283162778	-0.49084961227482693	0.0	1.4353906258659825	-0.5692060605687742	0.0	1.5239509997512484	-0.6075552341836512	0.0
143	4.792714025500911	1.4262384428850445	-0.6358380398229537	0.0	1.4367705950246763	-0.6343637102811712	0.0	1.5810015399804782	-0.6207171343340959	0.0	1.5657009114835476	-0.7399026484399136	0.0	1.6106512430211524	-0.7709642782209315	0.0	1.604198622061513	-0.7738902939662956	0.0	1.5500302072102647	-0.7565170354991344	0.0	1.4155308770787256	-0.6389324416676118	0.0	1.5456115164193873	-0.6209291648515103	0.0	1.5376912458359233	-0.7368750235665512	0.0	1.5835669844377984	-0.758154816086101	0.0	1.5753288222599557	-0.7607331557725958	0.0	1.5281865821043734	-0.7515319076524726	0.0	1.40820913752298	-0.4732580042993217	0.0	1.4219036072903604	-0.39883318931352496	0.0	1.4457335059354108	-0.44230561540068974	0.0	1.4302875273197104	-0.4906036472533848	0.0	1.4856405775541173	-0.5686100729553286	0.0	1.555890297547268	-0.6099121273618865	0.0	1.3770658160464806	-0.4936740886958476	0.0	1.4350434877940768	-0.5704945095136177	0.0	1.5301875764082913	-0.6062708650104559	0.0
144	4.826229508196722	1.4308896203328527	-0.6378944754134641	0.0	1.4417835637570358	-0.6364346916658309	0.0	1.5860432929362187	-0.6196452179686135	0.0	1.5803401741599332	-0.7408543485553528	0.0	1.62697297742205	-0.7691567060584059	0.0	1.6207179791816357	-0.7726965931784887	0.0	1.566993638950101	-0.7573243973934057	0.0	1.420941041541475	-0.6419968701076519	0.0	1.5479138884726267	-0.6236542121763434	0.0	1.5503974736865955	-0.7389555224914243	0.0	1.5949911813505353	-0.7545998666338376	0.0	1.586179644166226	-0.7582942602697782	0.0	1.542988118893374	-0.7539631231714207	0.0	1.4132154100181664	-0.47612747772141356	0.0	1.4280600212656196	-0.4024830154489712	0.0	1.451566119049299	-0.4465497896061501	0.0	1.4359637556565594	-0.49385033126050504	0.0	1.494115650082579	-0.5692501088561153	0.0	1.5644313884181225	-0.606375071087624	0.0	1.3804614359538556	-0.4964313711921148	0.0	1.4339600983266247	-0.5721866719570597	0.0	1.5313696684806084	-0.6054641438911194	0.0
145	4.8597449908925325	1.435450317950854	-0.6403195763461977	0.0	1.446399892248952	-0.6384696322303551	0.0	1.5910635726195268	-0.6193890183237833	0.0	1.5957543917896548	-0.7418817620028607	0.0	1.6443153285442744	-0.7669096467701112	0.0	1.638429348104697	-0.7711391399960024	0.0	1.5846952635940494	-0.7581753597903497	0.0	1.426203207096661	-0.6449961873891902	0.0	1.5510539118867372	-0.6273278444452626	0.0	1.5644945657614397	-0.7410153258072804	0.0	1.6076022675736719	-0.7503832576081245	0.0	1.598202422189528	-0.7557469780833561	0.0	1.558915160715786	-0.7563574336993326	0.0	1.4183346068540015	-0.47912318024953887	0.0	1.433660069136048	-0.40592868469025584	0.0	1.4570964141706482	-0.45042487947220533	0.0	1.4414224581276418	-0.49686004576587056	0.0	1.501524409497772	-0.5696526923043785	0.0	1.5720480187966361	-0.6028318348505362	0.0	1.3844153635253214	-0.49916237079422154	0.0	1.4347487890636492	-0.5743747787798655	0.0	1.5295373806583752	-0.6048541241551674	0.0
146	4.893260473588343	1.4400972115304194	-0.6431716875056357	0.0	1.4509131047340116	-0.6406548893864575	0.0	1.5961807844399332	-0.6199988376222937	0.0	1.6118179327048499	-0.742748684196703	0.0	1.662379858053795	-0.7638820146140738	0.0	1.65708525401481	-0.7689222599847013	0.0	1.60277316968834	-0.758984686843614	0.0	1.431546029556383	-0.6478765718944938	0.0	1.5552474894950024	-0.6316711721317606	0.0	1.5796829788130877	-0.7426478469702404	0.0	1.6212389241323362	-0.7456619414465704	0.0	1.611253859761377	-0.7529437954957403	0.0	1.575590389915038	-0.7583859878416491	0.0	1.4237480581974062	-0.4823604183067719	0.0	1.438963773073765	-0.40914801701225245	0.0	1.4625272592851128	-0.45410223573902636	0.0	1.44674604687898	-0.4995601026439374	0.0	1.5082127797925062	-0.5699926442892778	0.0	1.5792196265418672	-0.5995716023562078	0.0	1.389074695373481	-0.5020195418262687	0.0	1.438184441481258	-0.5768561754886864	0.0	1.5269243015781813	-0.6040916114443019	0.0
